<?xml version="1.0" encoding="utf-8"?>
<!-- Generator: Adobe Illustrator 25.4.1, SVG Export Plug-In . SVG Version: 6.00 Build 0)  -->
<svg version="1.1" id="Layer_1" xmlns="http://www.w3.org/2000/svg" xmlns:xlink="http://www.w3.org/1999/xlink" x="0px" y="0px"
	 viewBox="0 0 256 256" style="enable-background:new 0 0 256 256;" xml:space="preserve">
<style type="text/css">
	.st0{fill-rule:evenodd;clip-rule:evenodd;fill:#231F20;}
	.st1{fill-rule:evenodd;clip-rule:evenodd;fill:#FFD200;}
	.st2{fill-rule:evenodd;clip-rule:evenodd;fill:#FFFFFF;}
</style>
<g>
	<g>
		<rect x="3.3" y="3.24" class="st0" width="252.7" height="252.7"/>
		<path class="st1" d="M6.04,249.96h243.92V6.04H6.04V249.96L6.04,249.96z M256,256H0V0h256V256z"/>
		<path class="st2" d="M45.06,99.82h-7.78v10.15h7.85c4.15,0,6.59-1.85,6.59-5.04v-0.07C51.73,101.82,49.43,99.82,45.06,99.82
			L45.06,99.82z M50.1,85.15c0-3.11-2.22-4.81-6.22-4.81h-6.59v9.71h6.37c4.07,0,6.45-1.63,6.45-4.82V85.15L50.1,85.15z
			 M24.32,69.22H45.8c6.22,0,11.04,1.48,14.08,4.59c2.15,2.07,3.41,4.89,3.41,8.59v0.3c0,5.93-3.41,9.48-7.71,11.41
			c5.56,2.07,9.48,5.48,9.48,12.3v0.3c0,8.89-6.96,14.37-19.19,14.37H24.32V69.22z"/>
		<polygon class="st2" points="70.54,69.22 106.25,69.22 106.25,80.93 83.73,80.93 83.73,89.44 104.03,89.44 104.03,100.48 
			83.73,100.48 83.73,109.37 106.55,109.37 106.55,121.08 70.54,121.08 		"/>
		<polygon class="st2" points="112.77,69.22 125.29,69.22 142.56,95.3 142.56,69.22 155.67,69.22 155.67,121.08 143.81,121.08 
			125.89,93.89 125.89,121.08 112.77,121.08 		"/>
		<path class="st2" d="M162.93,81h12.96v40.08h-12.96V81L162.93,81z M162.71,67.44h13.41v10.15h-13.41V67.44z"/>
		<polygon class="st2" points="183.23,69.22 196.93,69.22 207.45,88.33 217.9,69.22 231.68,69.22 231.68,121.08 218.49,121.08 
			218.49,91.89 207.45,111.15 207.23,111.15 196.19,92.04 196.19,121.08 183.23,121.08 		"/>
		<path class="st2" d="M31.46,189.5l4.63-6.41c-4.95-0.7-9.51-2.66-13.51-6.15l6.09-8.31c3.61,2.98,7.74,5.01,12.05,5.01
			c3.04,0,4.63-1.33,4.63-3.23v-0.06c0-1.78-1.33-2.85-6.53-4.69c-8.37-2.85-14.27-5.9-14.27-13.95v-0.19
			c0-8.05,6.15-13.7,15.85-13.7c5.96,0,11.23,1.65,15.86,5.39l-5.77,8.5c-3.04-2.35-6.72-4.06-10.34-4.06
			c-2.6,0-4.06,1.27-4.06,2.92v0.06c0,1.97,1.39,2.98,7.04,5.07c8.43,2.73,13.7,6.15,13.7,13.7v0.13c0,7.67-5.2,12.68-13,13.7
			l-3.23,9.7L31.46,189.5z"/>
		<polygon class="st2" points="60.44,138.45 91.01,138.45 91.01,148.47 71.73,148.47 71.73,155.76 89.11,155.76 89.11,165.21 
			71.73,165.21 71.73,172.82 91.26,172.82 91.26,182.84 60.44,182.84 		"/>
		<polygon class="st2" points="95.32,138.45 106.74,138.45 106.74,155.31 119.36,155.31 119.36,138.45 130.83,138.45 130.83,182.84 
			119.36,182.84 119.36,165.72 106.74,165.72 106.74,182.84 95.32,182.84 		"/>
		<path class="st2" d="M153.09,160.01c3.87,0,6.15-2.22,6.15-5.77v-0.13c0-3.81-2.41-5.71-6.22-5.71h-5.58v11.61H153.09
			L153.09,160.01z M136.1,138.45h17.44c5.96,0,10.46,1.58,13.32,4.5c2.47,2.47,3.87,5.9,3.87,10.4v0.32
			c0,6.59-3.23,10.72-7.93,13.06l9.13,16.11h-12.87l-7.55-13.76h-4.06v13.76H136.1V138.45z"/>
		<path class="st2" d="M174.27,148.53h11.1v34.31h-11.1V148.53L174.27,148.53z M174.08,136.92h11.48v8.69h-11.48V136.92z"/>
		<polygon class="st2" points="190.38,138.45 202.11,138.45 211.12,154.81 220.06,138.45 231.85,138.45 231.85,182.84 
			220.57,182.84 220.57,157.85 211.12,174.34 210.93,174.34 201.48,157.98 201.48,182.84 190.38,182.84 		"/>
	</g>
</g>
</svg>
