<?xml version="1.0" encoding="utf-8"?>
<!-- Generator: Adobe Illustrator 25.4.1, SVG Export Plug-In . SVG Version: 6.00 Build 0)  -->
<svg version="1.1" id="Layer_1" xmlns="http://www.w3.org/2000/svg" xmlns:xlink="http://www.w3.org/1999/xlink" x="0px" y="0px"
	 viewBox="0 0 256 256" style="enable-background:new 0 0 256 256;" xml:space="preserve">
<style type="text/css">
	.st0{fill-rule:evenodd;clip-rule:evenodd;fill:#FFFFFF;}
	.st1{fill-rule:evenodd;clip-rule:evenodd;fill:#FFD200;}
	.st2{fill-rule:evenodd;clip-rule:evenodd;fill:#231F20;}
</style>
<g>
	<rect x="0" y="0" class="st0" width="256" height="256"/>
	<rect x="5.19" y="5.19" class="st1" width="245.62" height="245.62"/>
	<path class="st2" d="M220.52,191.91h-2.17v9.83h-7.1v-28.19h10.23c3.51,0,5.99,0.64,7.43,1.92c1.44,1.25,2.17,3.29,2.17,6.11
		c0,1.69-0.31,3.16-0.93,4.38c-0.6,1.23-1.5,2.06-2.7,2.5c1.36,0.65,2.31,1.42,2.85,2.31c0.54,0.86,0.81,2.58,0.81,5.17v3.17
		c0.04,1.17,0.29,1.76,0.76,1.76v0.86h-7.19c-0.24-0.84-0.36-2.48-0.36-4.93c0-1.96-0.23-3.26-0.69-3.92
		C223.18,192.24,222.15,191.91,220.52,191.91L220.52,191.91z M218.36,180.13v5.6h2.8c1.13,0,1.97-0.2,2.53-0.59
		c0.56-0.42,0.85-1.11,0.85-2.07c0-0.94-0.28-1.66-0.82-2.16c-0.52-0.52-1.2-0.78-2.04-0.78H218.36L218.36,180.13z M126.64,226.85
		h-5.72v-16.36h5.84c2.19,0,3.89,0.64,5.08,1.91c1.24,1.32,1.85,3.3,1.85,5.93C133.69,224.01,131.35,226.85,126.64,226.85
		L126.64,226.85z M125.28,214.29v8.77h0.92c2.1,0,3.14-1.48,3.14-4.44c0-2.15-0.45-3.47-1.35-3.96c-0.47-0.25-1.1-0.38-1.89-0.38
		H125.28L125.28,214.29z M73.92,226.85h-6.48v-16.36h6.35c1.67,0,2.95,0.28,3.83,0.85c1.03,0.66,1.54,1.75,1.54,3.26
		c0,1.48-0.58,2.66-1.74,3.56c0.95,0.29,1.6,0.98,1.96,2.08c0.17,0.51,0.26,1.07,0.26,1.67c0,1.75-0.51,3.02-1.53,3.8
		C77.12,226.48,75.73,226.85,73.92,226.85L73.92,226.85z M73.32,214.29h-1.53v2.75h1.81c1,0,1.5-0.48,1.5-1.44
		c0-0.59-0.19-0.97-0.58-1.15C74.3,214.34,73.9,214.29,73.32,214.29L73.32,214.29z M73.18,220.01h-1.39v3.04h1.9
		c1.25,0,1.88-0.5,1.88-1.51c0-0.84-0.36-1.32-1.08-1.45C74.15,220.04,73.72,220.01,73.18,220.01L73.18,220.01z M34.69,201.74H24.13
		v-28.19h10.35c2.75,0,4.89,0.52,6.44,1.57c1.54,1.04,2.32,2.88,2.32,5.52c0,1.33-0.27,2.52-0.81,3.56
		c-0.52,1.05-1.19,1.91-2.01,2.59c1.14,0.39,2.03,1.17,2.65,2.35c0.64,1.15,0.96,2.52,0.96,4.11c0,3-0.81,5.17-2.44,6.5
		C39.98,201.07,37.68,201.74,34.69,201.74L34.69,201.74z M33.73,180.13h-2.5v4.7h2.95c0.74,0,1.33-0.21,1.77-0.63
		c0.44-0.42,0.66-1.03,0.66-1.84c0-0.96-0.24-1.58-0.72-1.84C35.41,180.26,34.69,180.13,33.73,180.13L33.73,180.13z M33.49,189.96
		h-2.26v5.21h3.1c1,0,1.77-0.17,2.29-0.51c0.52-0.36,0.78-1.06,0.78-2.07c0-1.13-0.32-1.84-0.96-2.15
		C35.81,190.11,34.83,189.96,33.49,189.96L33.49,189.96z M107.74,139.57c3.45,0,6.15,1.22,8.11,3.65c1.79,2.24,2.69,5.01,2.69,8.33
		c0,2.36-0.42,4.45-1.25,6.27c-0.9,1.98-2.24,3.48-4.01,4.52c-1.65,0.97-3.49,1.45-5.54,1.45c-4.47,0-7.61-1.9-9.44-5.69
		c-0.9-1.85-1.34-4.05-1.34-6.61c0-3.59,0.99-6.47,2.98-8.65C101.93,140.66,104.53,139.57,107.74,139.57L107.74,139.57z
		 M107.69,145.19c-1.4,0-2.44,0.7-3.14,2.11c-0.56,1.12-0.84,2.54-0.84,4.25c0,2.6,0.54,4.49,1.63,5.65c0.6,0.65,1.41,0.97,2.4,0.97
		c1.83,0,3.04-1.05,3.64-3.15c0.28-0.99,0.42-2.14,0.42-3.46c0-2.48-0.59-4.29-1.76-5.45C109.43,145.5,108.64,145.19,107.69,145.19
		L107.69,145.19z M165.17,163.19h-6.6l7.37-23.01h6.87l7.37,23.01h-6.71l-0.81-3.04h-6.71L165.17,163.19L165.17,163.19z
		 M171.48,155.36l-2.16-8.24l-2.09,8.24H171.48L171.48,155.36z M202.26,166.74h5.09v5.09h-5.09V166.74L202.26,166.74z M95.91,166.74
		h5.09v5.09h-5.09V166.74L95.91,166.74z M102.77,166.74h5.08v5.09h-5.08V166.74L102.77,166.74z M49.99,166.74h5.08v5.09h-5.08
		V166.74L49.99,166.74z M56.85,166.74h5.08v5.09h-5.08V166.74L56.85,166.74z M201.51,173.55h7.1v28.19h-7.1V173.55L201.51,173.55z
		 M184.84,201.74h-7.1v-28.19h7.1v9.51h6.71v-9.51h7.1v28.19h-7.1v-10.92h-6.71V201.74L184.84,201.74z M175.82,201.74h-18.08v-28.19
		h17.66v6.58h-10.56v4.03h8.94v6.58h-8.94v4.42h10.98V201.74L175.82,201.74z M155.36,181.73h-6.74c-0.1-0.89-0.42-1.51-0.96-1.88
		c-0.54-0.37-1.17-0.55-1.9-0.55c-1.5,0-2.25,0.53-2.25,1.6c0,1.04,1.3,2.01,3.91,2.9c2.61,0.86,4.68,1.84,6.23,2.94
		c1.55,1.07,2.32,3.08,2.32,6.03c0,3.15-0.92,5.57-2.77,7.24c-1.59,1.42-3.64,2.23-6.14,2.42l-0.82,1.08l0.74-0.05
		c1.59,0,2.38,0.6,2.38,1.79c0,0.63-0.4,1.11-1.18,1.46c-0.6,0.26-1.57,0.4-2.93,0.4c-0.57,0-1.38-0.13-2.43-0.4l0.35-1.2
		c0.93,0.32,1.69,0.48,2.27,0.48c1.02,0,1.53-0.22,1.53-0.65c0-0.22-0.14-0.41-0.42-0.57c-0.26-0.14-0.52-0.22-0.79-0.22
		c-0.39,0-0.77,0.07-1.11,0.2l-0.59-0.44l1.33-1.84c-2.64-0.09-4.8-1-6.5-2.74c-1.78-1.83-2.68-4.06-2.68-6.69h6.8
		c0.14,0.99,0.51,1.73,1.11,2.23c0.62,0.47,1.31,0.7,2.08,0.7c0.92,0,1.65-0.17,2.17-0.51c0.52-0.36,0.78-0.89,0.78-1.57
		c0-1.04-1.29-1.99-3.88-2.82c-2.57-0.84-4.64-1.81-6.23-2.94c-1.56-1.12-2.35-3.24-2.35-6.34c0-2.9,0.86-5.11,2.59-6.65
		c1.73-1.56,3.99-2.35,6.8-2.35c2.85,0,5.03,0.82,6.56,2.47C154.18,176.92,155.08,179.07,155.36,181.73L155.36,181.73z
		 M113.93,201.74h7.1v-8.93l1.69-2.31l5.2,11.24h8.51l-8.75-17.58l7.91-10.61h-8.33l-6.23,9.12v-9.12h-7.1V201.74L113.93,201.74z
		 M90.83,189.45v-15.9h7.1v16.87c0,1.64,0.22,2.92,0.66,3.83c0.44,0.89,1.33,1.33,2.68,1.33c1.22,0,2.08-0.44,2.56-1.33
		c0.5-0.88,0.75-2.16,0.75-3.83v-16.87h7.1v15.93c0,4.49-0.83,7.78-2.5,9.87c-1.66,2.09-4.3,3.13-7.91,3.13
		c-3.49,0-6.11-0.99-7.85-2.97C91.69,197.5,90.83,194.15,90.83,189.45L90.83,189.45z M82.08,191.33v10.41h-7.1v-10.26l-8.06-17.93
		h7.94l3.73,9.55l3.73-9.55h7.82L82.08,191.33L82.08,191.33z M45.37,189.45v-15.9h7.1v16.87c0,1.64,0.22,2.92,0.66,3.83
		c0.44,0.89,1.33,1.33,2.68,1.33c1.22,0,2.08-0.44,2.56-1.33c0.5-0.88,0.75-2.16,0.75-3.83v-16.87h7.1v15.93
		c0,4.49-0.83,7.78-2.5,9.87c-1.66,2.09-4.3,3.13-7.91,3.13c-3.49,0-6.1-0.99-7.85-2.97C46.23,197.5,45.37,194.15,45.37,189.45
		L45.37,189.45z M184.62,205.93h3.19v2.95h-3.19V205.93L184.62,205.93z M184.04,210.49h4.36v16.36h-4.36V210.49L184.04,210.49z
		 M181.59,215.24h-4.12c-0.13-0.93-0.72-1.39-1.76-1.39c-0.92,0-1.39,0.31-1.39,0.92c0,0.53,0.43,0.94,1.28,1.24l2.78,0.98
		c1.04,0.37,1.89,0.89,2.55,1.55c0.69,0.7,1.04,1.73,1.04,3.1c0,2.45-0.99,4.12-2.97,5c-0.94,0.42-2.03,0.63-3.26,0.63
		c-1.69,0-3.09-0.55-4.2-1.63c-0.79-0.76-1.31-1.69-1.56-2.78c-0.08-0.34-0.13-0.7-0.13-1.07h4.18c0.08,0.54,0.31,0.96,0.71,1.27
		c0.36,0.28,0.77,0.42,1.25,0.42c0.75,0,1.27-0.18,1.58-0.55c0.15-0.18,0.22-0.39,0.22-0.64c0-0.53-0.43-0.95-1.28-1.23l-2.78-0.97
		c-2.39-0.81-3.58-2.42-3.58-4.82c0-2.26,0.93-3.81,2.78-4.63c0.87-0.39,1.87-0.59,2.98-0.59c1.53,0,2.78,0.4,3.75,1.19
		C180.76,212.14,181.4,213.47,181.59,215.24L181.59,215.24z M168.35,226.85h-11.1v-16.36h10.84v3.8h-6.48v2.36h5.48v3.8h-5.48v2.61
		h6.74V226.85L168.35,226.85z M150.77,220.81v6.04h-4.36v-5.96l-4.95-10.41h4.87l2.29,5.54l2.29-5.54h4.79L150.77,220.81
		L150.77,220.81z M136.13,205.93v2.95h3.2v-2.95H136.13L136.13,205.93z M135.56,210.49h4.36v16.36h-4.36V210.49L135.56,210.49z
		 M118.83,226.85h-11.1v-16.36h10.84v3.8h-6.48v2.36h5.48v3.8h-5.48v2.61h6.74V226.85L118.83,226.85z M105.68,226.85H95.34v-16.36
		h4.36v12.56h5.98V226.85L105.68,226.85z M93.04,226.85h-11.1v-16.36h10.83v3.8H86.3v2.36h5.48v3.8H86.3v2.61h6.74V226.85
		L93.04,226.85z M155.08,154.68l7.66-14.51h-7.43l-3.55,7.79l-3.54-7.79h-7.55l7.66,14.63v8.38h6.75V154.68L155.08,154.68z
		 M126.5,140.18l7.35,12.55l-0.26-5.24v-7.31h6.46v23.01h-6.33l-7.34-12.53l0.26,5.24v7.29h-6.46v-23.01H126.5L126.5,140.18z
		 M77.63,163.19h6.75v-7.29l1.6-1.89l4.94,9.18h8.09l-8.32-14.35l7.51-8.66h-7.91l-5.91,7.43v-7.43h-6.75V163.19z"/>
	<path class="st2" d="M110.6,101.5c-0.63,0.9-2.71,3.42-5.83,2.82c2.42-0.84,3.06-2.83,3.23-3.6c-0.23-0.6-1.08-1.4-2.41-0.67
		c-4.37,3.1-6.74,1.53-8.84,0.92c-2.1-0.61-4.26,4.37-4.26,4.37c-1.89-6,4.63-8.84,4.63-8.84s-1.63-1.43-6.11,2.19
		c0.84-5.54,6.32-5.75,6.32-5.75s-1.11-1.47-5.37,0.36c1.48-3.2,3.42-4.48,7.16-4.74c3.74-0.25,5.05,2.25,8.26,2.05
		c3.84-0.26,5-5.08,4.95-7.07c-0.05-1.99-1.74-3.92-2-8.79c-3.74-2.7-3.26-7.17-3.26-7.17s-1.1,0.86-1.94,0.92
		c-0.37,1.42-1.48,3.05-4.06,3.25c-1.1,3.81-3.73,2.9-3.73,2.9s-0.68,3.76-3.37,4.01c-0.47,4.37-4.21,5.14-4.21,5.14v7.22
		c0,0,0.37,6.31-5.21,8.64c-0.84,9.45-7.68,16.88-15.79,16.42c11.79-9.66,9.84-16.98,9.84-16.98s-2.79,1.83-10.26,1.42
		c2.74-1.93,7.53-7.98,8.21-14.08c-5.95,3.51-11.84-0.2-11.84-0.2s2.79-0.41,6.84-3.61c4.05-3.21,7.63-19.01,7.63-19.01
		s-2.79,1.37-9.05,0.31c5.89-1.02,8.84-8.95,10.57-13.62c1.73-4.68,4.26-7.73,10-7.73c5.74,0,9.42,7.73,9.42,7.73
		s2.94,4.88,8.89,5.24c5.95,0.36,6.31-4.88,6.31-4.88s0.11-3.45-2.89-3.1c-4.74,0.51-6.27-3.96-6.27-3.96s-3.26-0.87-5.52,3.81
		c-0.79-3.92-0.63-8.64,5.52-10.42c4.84-5.59,10.9-4.88,10.9-4.88s2.33,0.24,7.16-1.17c0.74,2.34-1.16,5.16-1.16,5.16
		s3.79,1.57,4.95,3.29c2.27-2.36,4.95-3.29,4.95-3.29s-1.89-2.83-1.16-5.16c4.43,1.3,7.16,1.17,7.16,1.17s6.06-0.71,10.9,4.88
		c6.15,1.78,6.31,6.5,5.52,10.42c-2.26-4.68-5.52-3.81-5.52-3.81s-1.53,4.47-6.27,3.96c-3-0.35-2.89,3.1-2.89,3.1
		s0.37,5.24,6.31,4.88c5.95-0.36,8.89-5.24,8.89-5.24s3.68-7.73,9.42-7.73c5.74,0,8.27,3.05,10,7.73
		c1.74,4.68,4.68,12.61,10.57,13.62c-6.26,1.07-9.05-0.31-9.05-0.31s3.58,15.81,7.63,19.01c4.05,3.2,6.84,3.61,6.84,3.61
		s-5.89,3.71-11.84,0.2c0.68,6.1,5.47,12.15,8.21,14.08c-7.48,0.41-10.26-1.42-10.26-1.42s-1.94,7.32,9.84,16.98
		c-8.1,0.46-14.95-6.97-15.79-16.42c-5.58-2.34-5.21-8.64-5.21-8.64v-7.22c0,0-3.74-0.76-4.21-5.14c-2.69-0.25-3.37-4.01-3.37-4.01
		s-2.63,0.91-3.74-2.9c-2.58-0.2-3.68-1.83-4.05-3.25c-0.84-0.05-1.94-0.92-1.94-0.92s0.48,4.47-3.26,7.17
		c-0.26,4.88-1.95,6.81-2,8.79c-0.05,1.98,1.11,6.81,4.95,7.07c3.21,0.2,4.52-2.3,8.26-2.05c3.74,0.26,5.68,1.54,7.16,4.74
		c-4.26-1.83-5.37-0.36-5.37-0.36s5.47,0.21,6.31,5.75c-4.47-3.61-6.1-2.19-6.1-2.19s6.52,2.85,4.63,8.84c0,0-2.16-4.98-4.26-4.37
		c-2.1,0.61-4.47,2.18-8.84-0.92c-1.43-0.79-2.3,0.19-2.45,0.8c0.2,0.85,0.91,2.68,3.2,3.47c-3.52,0.67-5.71-2.61-6.01-3.07
		c-0.11-0.13-0.21-0.27-0.32-0.44c-1.11-1.22-3.16-0.05-3.16,3.56c2.53,1.88,10.53,8.24,10.53,8.24s2.97,2.15,0.68,4.42
		c-1.9,1.88-4.53,1-4.53,1s-0.27,3.82-4.38,2.69c-0.39,3.67-4.22,3.39-5.43,2.48c-1.09,2.4-4.71,2.09-5.98,0.26
		c-1.22,2.05-3.03,2.32-3.03,2.32c-0.98,0.3-2.01,0.3-3.08,0c0,0-1.81-0.27-3.03-2.32c-1.26,1.83-4.89,2.15-5.97-0.26
		c-1.21,0.91-5.04,1.19-5.43-2.48c-4.11,1.12-4.38-2.69-4.38-2.69s-2.64,0.88-4.53-1c-2.29-2.27,0.68-4.42,0.68-4.42
		s8-6.35,10.53-8.24c0-3.61-2.06-4.78-3.16-3.56C110.97,101.1,110.79,101.32,110.6,101.5z"/>
	<path class="st0" d="M168.12,47.6c0,0,0.21-1.84,1.91-2.1c-1.35-1.28-3.34-1.64-4.71-1.37c-1.37,0.26-0.05,2.75,0.32,3.15
		c0.68-0.27,0.44-0.48,1.49-0.4C167.51,46.9,168.12,47.6,168.12,47.6L168.12,47.6z M108.96,37.95c0,0,0.68-2.09,4.32-2.2
		c-0.57,2.86-1.58,3.79-2.95,3.51C108.96,38.99,108.96,37.95,108.96,37.95L108.96,37.95z M105.15,38.93c0,0-3.41,0.71-3.81,5.1
		c2.39-2.41,4.21-2.58,4.21-2.58s0.28-0.99,0.11-2.03C105.6,38.99,105.15,38.93,105.15,38.93L105.15,38.93z M107.09,42.56
		c0,0,0.91,0.22,1.81,1.97c0.97,1.97,3.19,1.43,3.19,1.43s1.93-0.06,3.24,0.98c1.31,1.04,2.55,3.46,5.62,5.16
		c3.07,1.7,5.22-0.28,5.44-1.81c0.23-1.54,0.11-5.44-0.28-6.81c-0.4-1.37-2.48-6.06-6.06-6.39c-3.92-0.33-3.58-1.96-5-2.45
		c-1.42-0.49-4.47-0.01-6.41,1.58c-1.48,1.03-1.6,1.44-1.38,2.76C107.49,40.3,107.09,42.56,107.09,42.56L107.09,42.56z M81.75,52.01
		c-0.3,0.96-2.21,7.99-5.86,10.51c2.31,0.1,3.35-0.45,4.18-1.72c1.02-1.54,3.2-6.2,3.55-7.65c0.36-1.45-0.25-1.74-0.56-1.89
		C82.76,51.13,82.05,51.05,81.75,52.01L81.75,52.01z M85.16,50.28c0,0-1.87,0.32-1.89-1.34c-0.02-1.66,1.35-1.7,1.67-1.72
		c0.33-0.02,1.48,0.4,1.39,1.76C86.25,50.34,85.16,50.28,85.16,50.28L85.16,50.28z M87.76,47.6c0,0,0.61-0.7,0.99-0.71
		c1.05-0.08,0.8,0.13,1.49,0.4c0.36-0.4,1.69-2.89,0.32-3.15c-1.37-0.26-3.36,0.09-4.71,1.37C87.55,45.76,87.76,47.6,87.76,47.6
		L87.76,47.6z M92.08,48.14c0,0,0.96-1.58,1.14-2.73c0.13-0.67,1.02-0.41,1.22-0.22c0.2,0.19,2.17,1.68,2.83,3.54
		c0.54,1.48-0.71,2.14-0.71,2.14s-0.86,0.62-2.1-0.42C93.22,49.42,92.08,48.14,92.08,48.14L92.08,48.14z M97.7,53.84
		c0,0-0.53-0.41-0.23-1.07c0.3-0.65,0.79-0.94,1.36-0.89c0.56,0.05,1.31,0.82,1.87,1.48c0.56,0.67,0.99,1.12,0.86,1.59
		c-0.13,0.48-1.41,0.89-2.36,0.29C98.23,54.64,97.7,53.84,97.7,53.84L97.7,53.84z M80.99,63.88c0,0,0.18-1.42,0.99-1.42
		c0.82,0,0.55,1.15,0.55,1.15s-2.65,11.13-3.77,15.12c-1.12,3.98-3.7,5.88-5.87,5.81C77.43,81.17,80.99,63.88,80.99,63.88
		L80.99,63.88z M74.27,97.98c0,0,2.46-3.73,5.53-17.11c3.07-13.38,4.6-17.57,4.6-17.57s0.32-1,1.18-0.98
		c0.87,0.02,0.68,0.8,0.6,1.11c-0.08,0.3-3.6,11.54-5.44,21.94c-1.63,9.2-2.8,10.43-2.8,10.43C76.87,97.2,75.74,97.43,74.27,97.98
		L74.27,97.98z M87.73,64.13l0.32-0.97c0,0,0.23-1.11,1.02-1.03c1.02,0.1,0.38,1.36,0.38,1.36s-0.2,0.51-1.53,3.6
		c-2.47,5.98-4.13,20.97-4.6,29.53c-0.47,8.56-3.33,11.58-5.86,13.7c2-3.09,2.33-5.28,3.93-17.57
		C83.2,74.62,87.73,64.13,87.73,64.13L87.73,64.13z M85.6,95.02c0,0,1.07-0.07,1.93-2.12c0.87-2.06,0.8-5.47,0.73-12.55
		c-0.07-7.08,3.73-15.76,4.26-16.99c0.53-1.22-0.33-1.35-0.33-1.35s-0.8-0.26-1.46,1.48c-0.67,1.8-2.06,5.15-3.66,13.51
		C85.46,85.36,85.6,95.02,85.6,95.02L85.6,95.02z M94.06,63.3c0,0-5.86,13.71-3.26,16.98c1.53-2.44,1.33-5.41,2.4-9.59
		c1.07-4.18,1.33-5.73,2-7.2c0.67-1.48-0.01-1.46-0.01-1.46s-0.45-0.19-0.96,0.93C94.16,63.12,94.06,63.3,94.06,63.3L94.06,63.3z
		 M94.71,75.35c0,0-0.75-2.48,0.37-6.53c1.12-4.05,2-6.12,2-6.12s0.33-1,1.11-1.07c0.78-0.07,0.85,0.87,0.68,1.17
		c-0.17,0.29-2.02,4.1-2.16,6.28c-0.14,2.18-0.47,4.07-1.29,5.45C95.12,75.05,94.71,75.35,94.71,75.35L94.71,75.35z M98.02,71.89
		c0,0,1.66-0.16,1.94-2.35c0.08-0.67,0.37-2.66,1.19-4.38c0.81-1.72,1.17-2.62,1.38-3.31c0.2-0.69-0.2-0.97-0.51-0.97
		c-0.3,0-0.63-0.13-1.34,0.97C97.76,67.07,98.02,71.89,98.02,71.89L98.02,71.89z M101.94,69.31c0,0-0.68-0.46,0.95-4.54
		c1.63-4.08,1.97-4.51,1.97-4.51s0.56-0.76,0.98-0.72c0.43,0.03,0.66,0.23,0.39,1.02c-0.27,0.79-1.59,3.23-1.85,5.17
		C103.95,69.01,101.94,69.31,101.94,69.31L101.94,69.31z M113.5,87.46c0,0,2.2-3.96-0.03-9.2c-1.23-3.02,2.3-3.83,2.3-3.83
		s4.2-1.54,4.3,0.71c0.1,2.25-1.33,6.72-2.36,8.27c-1.03,1.54-0.3,2.67-0.3,2.67s0.47,0.67,0,1.16c-0.47,0.48-1.96,1.96-3.6,2.06
		C112.3,89.36,113.5,87.46,113.5,87.46L113.5,87.46z M111.06,93.64c0,0-1.74-0.15-1.49-1.38c0.25-1.24,1.52-0.8,3.02-1.02
		c1.5-0.22,2.09-0.92,2.92,0.15c0.83,1.08,2.34,1.91,2.21,3.3c-0.13,1.39-0.96,3.04-1.76,4.23c-0.81,1.2-1.97,0.3-2.13-0.37
		c-0.16-0.67,0.64-2.13-0.51-3.56C112.18,93.55,111.06,93.64,111.06,93.64L111.06,93.64z M110.05,95.3c-0.66-0.03-1.24-0.31-1.5-1
		c-0.26-0.7-1.02-1.76-2.36-1.91c-1.34-0.15-2.54-1.54-4.54-1.79c-2-0.25-2.65,1.54-2.01,1.73c0.64,0.18,1.4,1.23,0.51,1.29
		c-1.16,0.08-1.98,1.34-1.09,1.93c0.89,0.59,1.02,1.57,0.32,1.91c-0.7,0.34-2.38,1.43-0.51,2.18c2.25,0.71,3.46-0.12,4.9-0.97
		c1.44-0.85,2.67-0.71,4.07-0.46c1.4,0.25,1.18,1.5,2.2,1.47c0.96-0.31,2.06-2.39,1.84-3.41C111.67,95.24,110.71,95.33,110.05,95.3
		L110.05,95.3z M113.52,106.74c-0.57,0.39-6.32,5.29-7.91,7.12c-1.58,1.83,0.62,2.53,1.75,1.94c1.13-0.59,5.65-5.95,6.85-7.34
		c1.56-1.82,0.71-2.02,0.71-2.02S114.37,106.16,113.52,106.74L113.52,106.74z M109.72,119.11c0,0-1.1-0.57-0.28-2.16
		c0.81-1.58,6.63-8.48,6.63-8.48s0.79-1.16,1.53-0.64c0.43,0.29-0.01,1.07-0.23,1.45c-0.23,0.38-4.96,9.14-4.96,9.14
		C111.39,119.76,110.65,119.55,109.72,119.11L109.72,119.11z M114.69,121.83c0,0-1.17-0.42-0.59-2.1c0.58-1.68,5.28-9.55,5.28-9.55
		s0.77-1.66,1.68-1.25c0.64,0.29,0.13,1.72-0.04,2.13c-0.17,0.41-3.76,9.73-3.76,9.73C116.44,122.25,115.67,122.14,114.69,121.83
		L114.69,121.83z M120.1,122.64c1.02,0.16,1.8,0.16,2.37-1.41c0,0,2.41-9.72,2.51-10.14c0.1-0.43-0.26-1.47-0.76-1.63
		c-0.86-0.28-1.26,1.22-1.26,1.22s-3.47,8.24-3.78,9.98C118.88,122.4,120.1,122.64,120.1,122.64L120.1,122.64z M127.89,123.52
		c0,0-2.1-0.2-2.28-1.96c-0.18-1.76,1.36-9.62,1.36-9.62s0.14-1.53,1.05-1.47c0.52,0.04,0.8,1.02,0.81,1.46
		c0.02,0.44,1.41,9.4,1.41,9.4C130.35,122.65,128.92,123.42,127.89,123.52L127.89,123.52z M121.89,106.95
		c-0.39-0.09-0.96-0.62-0.71-1.38l2.14-6.96c0.13-0.5,0.55-0.84,0.95-0.74c0.39,0.1,0.61,0.58,0.48,1.08l-1.31,6.89
		C123.18,106.92,122.29,107.04,121.89,106.95L121.89,106.95z M125.8,107.67c0.43,0.04,1.39-0.29,1.45-0.81l0.28-7.92
		c0.06-0.52-0.25-0.97-0.68-1.01c-0.43-0.04-0.82,0.34-0.88,0.85l-1.41,7.82C124.5,107.13,125.37,107.63,125.8,107.67L125.8,107.67z
		 M118.55,105.8c0.38,0.14,1.16,0.35,1.55-0.69l2.29-6.91c0.19-0.48,0.04-0.99-0.34-1.13c-0.38-0.14-0.84,0.14-1.03,0.62l-2.98,6.69
		C117.69,105.1,118.17,105.66,118.55,105.8L118.55,105.8z M115.85,102.85c0.34,0.21,1.16,0.35,1.75-0.59l2.71-4.97
		c0.28-0.44,0.24-0.97-0.11-1.17c-0.34-0.21-0.85-0.02-1.14,0.42l-3.29,4.73C115.29,101.9,115.51,102.64,115.85,102.85
		L115.85,102.85z M83.83,56.58c0,0,0.9-1,1.93-0.5c0.82,0.4,1.49,1.06,1.36,1.87c-0.13,0.8-1.1,2.44-2.27,2.69
		c-1.16,0.25-2.19,0.5-2.32-0.81C82.4,58.5,83.83,56.58,83.83,56.58L83.83,56.58z M87.77,54.76c0,0,1.93-0.19,2.45-1.13
		c0.52-0.94,1.1-2.43,0.71-3.24c-0.39-0.81-1.04-1.49-2.26-0.94c-1.22,0.55-2.91,2.63-2.85,4.05
		C85.89,54.94,87.77,54.76,87.77,54.76L87.77,54.76z M91.92,60.73c0,0-2.17,0.15-2.87-0.98c-0.7-1.13-0.45-2.37-0.13-2.93
		c0.32-0.56,1.83-1.63,3.17-0.81c1.35,0.81,2.51,1.13,2.51,1.13s0.97,0.24,1.04,1.24c0.06,1-0.2,1.63-1.1,1.94
		C93.64,60.63,91.92,60.73,91.92,60.73L91.92,60.73z M95.08,55.34c0.68-0.06,0.9-0.66,0.9-0.66s0.14-0.56-0.76-1.76
		c-0.9-1.2-2.02-1.04-2.31-1.02c-0.29,0.02-1.22,0.83-0.76,2.13C92.62,55.33,94.4,55.4,95.08,55.34L95.08,55.34z M101.81,58.32
		c0.39-0.33,0.5-0.64,0.32-1.15c-0.18-0.51-1.07-0.58-1.96-0.5c-0.9,0.08-1.74-0.21-2.4,0.08c-0.66,0.29-1.08,1.57,0.52,2.44
		C99.89,60.05,101.42,58.65,101.81,58.32L101.81,58.32z M103.98,55.59c0,0-0.68,0.21-0.5,1.1c0.18,0.89,0.61,0.89,1.66,0.7
		c1.05-0.19,1.19-0.5,1.01-0.87c-0.18-0.37-0.74-0.93-1.82-0.99C104.11,55.53,103.98,55.59,103.98,55.59L103.98,55.59z
		 M147.04,37.95c0,0-0.68-2.09-4.32-2.2c0.57,2.86,1.58,3.79,2.95,3.51C147.04,38.99,147.04,37.95,147.04,37.95L147.04,37.95z
		 M150.85,38.93c0,0,3.41,0.71,3.81,5.1c-2.39-2.41-4.2-2.58-4.2-2.58s-0.29-0.99-0.12-2.03C150.39,38.99,150.85,38.93,150.85,38.93
		L150.85,38.93z M174.25,52.01c0.3,0.96,2.21,7.99,5.86,10.51c-2.31,0.1-3.35-0.45-4.19-1.72c-1.02-1.54-3.2-6.2-3.55-7.65
		c-0.36-1.45,0.26-1.74,0.56-1.89C173.24,51.13,173.95,51.05,174.25,52.01L174.25,52.01z M170.84,50.28c0,0-1.09,0.06-1.17-1.3
		c-0.09-1.36,1.07-1.79,1.39-1.76c0.33,0.02,1.69,0.06,1.67,1.72C172.7,50.6,170.84,50.28,170.84,50.28L170.84,50.28z M163.91,48.14
		c0,0-0.96-1.58-1.14-2.73c-0.13-0.67-1.03-0.41-1.22-0.22c-0.2,0.19-2.17,1.68-2.83,3.54c-0.54,1.48,0.71,2.14,0.71,2.14
		s0.86,0.62,2.1-0.42C162.78,49.42,163.91,48.14,163.91,48.14L163.91,48.14z M158.3,53.84c0,0,0.53-0.41,0.23-1.07
		c-0.3-0.65-0.8-0.94-1.36-0.89c-0.56,0.05-1.31,0.82-1.87,1.48c-0.56,0.67-0.99,1.12-0.86,1.59c0.13,0.48,1.41,0.89,2.36,0.29
		C157.77,54.64,158.3,53.84,158.3,53.84L158.3,53.84z M175.01,63.88c0,0-0.18-1.42-0.99-1.42c-0.81,0-0.55,1.15-0.55,1.15
		s2.65,11.13,3.77,15.12c1.12,3.98,3.7,5.88,5.88,5.81C178.57,81.17,175.01,63.88,175.01,63.88L175.01,63.88z M181.72,97.98
		c0,0-2.47-3.73-5.53-17.11c-3.06-13.38-4.6-17.57-4.6-17.57s-0.32-1-1.18-0.98c-0.87,0.02-0.68,0.8-0.6,1.11
		c0.09,0.3,3.6,11.54,5.44,21.94c1.63,9.2,2.8,10.43,2.8,10.43C179.12,97.2,180.26,97.43,181.72,97.98L181.72,97.98z M168.27,64.13
		l-0.32-0.97c0,0-0.23-1.11-1.02-1.03c-1.02,0.1-0.39,1.36-0.39,1.36s0.2,0.51,1.53,3.6c2.46,5.98,4.13,20.97,4.6,29.53
		c0.47,8.56,3.33,11.58,5.86,13.7c-2-3.09-2.33-5.28-3.93-17.57C172.8,74.62,168.27,64.13,168.27,64.13L168.27,64.13z M170.4,95.02
		c0,0-1.07-0.07-1.93-2.12c-0.87-2.06-0.8-5.47-0.73-12.55c0.07-7.08-3.73-15.76-4.26-16.99c-0.53-1.22,0.33-1.35,0.33-1.35
		s0.8-0.26,1.47,1.48c0.67,1.8,2.07,5.15,3.66,13.51C170.53,85.36,170.4,95.02,170.4,95.02L170.4,95.02z M161.94,63.3
		c0,0,5.86,13.71,3.26,16.98c-1.53-2.44-1.33-5.41-2.4-9.59c-1.07-4.18-1.33-5.73-2-7.2c-0.66-1.48,0.01-1.46,0.01-1.46
		s0.45-0.19,0.96,0.93C161.84,63.12,161.94,63.3,161.94,63.3L161.94,63.3z M161.29,75.35c0,0,0.75-2.48-0.37-6.53
		c-1.12-4.05-2-6.12-2-6.12s-0.32-1-1.11-1.07c-0.78-0.07-0.85,0.87-0.68,1.17c0.17,0.29,2.02,4.1,2.16,6.28
		c0.13,2.18,0.47,4.07,1.29,5.45C160.88,75.05,161.29,75.35,161.29,75.35L161.29,75.35z M157.98,71.89c0,0-1.66-0.16-1.93-2.35
		c-0.08-0.67-0.37-2.66-1.19-4.38c-0.81-1.72-1.17-2.62-1.38-3.31c-0.2-0.69,0.2-0.97,0.51-0.97c0.3,0,0.63-0.13,1.34,0.97
		C158.23,67.07,157.98,71.89,157.98,71.89L157.98,71.89z M154.05,69.31c0,0,0.68-0.46-0.95-4.54c-1.63-4.08-1.97-4.51-1.97-4.51
		s-0.56-0.76-0.99-0.72c-0.43,0.03-0.66,0.23-0.39,1.02c0.27,0.79,1.59,3.23,1.85,5.17C152.05,69.01,154.05,69.31,154.05,69.31
		L154.05,69.31z M142.5,87.46c0,0-2.2-3.96,0.03-9.2c1.23-3.02-2.3-3.83-2.3-3.83s-4.19-1.54-4.29,0.71
		c-0.1,2.25,1.33,6.72,2.36,8.27c1.03,1.54,0.3,2.67,0.3,2.67s-0.47,0.67,0,1.16c0.47,0.48,1.96,1.96,3.59,2.06
		C143.69,89.36,142.5,87.46,142.5,87.46L142.5,87.46z M144.93,93.64c0,0,1.74-0.15,1.49-1.38c-0.26-1.24-1.52-0.8-3.02-1.02
		c-1.5-0.22-2.09-0.92-2.92,0.15c-0.83,1.08-2.34,1.91-2.21,3.3c0.13,1.39,0.96,3.04,1.77,4.23c0.81,1.2,1.96,0.3,2.12-0.37
		c0.16-0.67-0.64-2.13,0.51-3.56C143.82,93.55,144.93,93.64,144.93,93.64L144.93,93.64z M145.94,95.3c0.66-0.03,1.24-0.31,1.5-1
		c0.26-0.7,1.02-1.76,2.36-1.91c1.34-0.15,2.54-1.54,4.54-1.79c2-0.25,2.65,1.54,2.01,1.73c-0.64,0.18-1.4,1.23-0.51,1.29
		c1.16,0.08,1.98,1.34,1.08,1.93c-0.89,0.59-1.02,1.57-0.32,1.91c0.7,0.34,2.38,1.43,0.51,2.18c-2.25,0.71-3.46-0.12-4.9-0.97
		c-1.44-0.85-2.67-0.71-4.07-0.46c-1.4,0.25-1.18,1.5-2.2,1.47c-0.96-0.31-2.06-2.39-1.84-3.41
		C144.33,95.24,145.29,95.33,145.94,95.3L145.94,95.3z M142.47,106.74c0.57,0.39,6.33,5.29,7.91,7.12c1.58,1.83-0.62,2.53-1.75,1.94
		c-1.13-0.59-5.65-5.95-6.85-7.34c-1.56-1.82-0.71-2.02-0.71-2.02S141.62,106.16,142.47,106.74L142.47,106.74z M146.28,119.11
		c0,0,1.1-0.57,0.28-2.16c-0.82-1.58-6.63-8.48-6.63-8.48s-0.8-1.16-1.54-0.64c-0.43,0.29,0.01,1.07,0.24,1.45
		c0.22,0.38,4.95,9.14,4.95,9.14C144.61,119.76,145.35,119.55,146.28,119.11L146.28,119.11z M130.25,107.67
		c0.43-0.04,1.3-0.54,1.24-1.06l-1.41-7.82c-0.06-0.52-0.45-0.9-0.88-0.85c-0.43,0.04-0.73,0.5-0.68,1.01l0.28,7.92
		C128.86,107.38,129.82,107.72,130.25,107.67L130.25,107.67z M137.45,105.8c-0.38,0.14-1.16,0.35-1.55-0.69l-2.29-6.91
		c-0.19-0.48-0.04-0.99,0.34-1.13c0.38-0.14,0.84,0.14,1.03,0.62l2.99,6.69C138.31,105.1,137.83,105.66,137.45,105.8L137.45,105.8z
		 M140.15,102.85c-0.34,0.21-1.16,0.35-1.75-0.59l-2.71-4.97c-0.28-0.44-0.24-0.97,0.11-1.17c0.34-0.21,0.85-0.02,1.14,0.42
		l3.29,4.73C140.71,101.9,140.49,102.64,140.15,102.85L140.15,102.85z M172.17,56.58c0,0-0.9-1-1.93-0.5
		c-0.82,0.4-1.49,1.06-1.36,1.87c0.13,0.8,1.1,2.44,2.27,2.69c1.17,0.25,2.19,0.5,2.32-0.81C173.6,58.5,172.17,56.58,172.17,56.58
		L172.17,56.58z M168.23,54.76c0,0,1.88,0.18,1.94-1.25c0.06-1.43-1.63-3.5-2.85-4.05c-1.22-0.55-1.86,0.12-2.25,0.94
		c-0.39,0.81,0.19,2.3,0.71,3.24C166.3,54.57,168.23,54.76,168.23,54.76L168.23,54.76z M164.08,60.73c0,0,2.17,0.15,2.87-0.98
		c0.7-1.13,0.45-2.37,0.13-2.93c-0.32-0.56-1.83-1.63-3.17-0.81c-1.35,0.81-2.51,1.13-2.51,1.13s-0.97,0.24-1.04,1.24
		c-0.07,1,0.19,1.63,1.1,1.94C162.36,60.63,164.08,60.73,164.08,60.73L164.08,60.73z M160.92,55.34c-0.68-0.06-0.9-0.66-0.9-0.66
		s-0.14-0.56,0.76-1.76c0.9-1.2,2.02-1.04,2.3-1.02c0.29,0.02,1.22,0.83,0.76,2.13C163.38,55.33,161.6,55.4,160.92,55.34
		L160.92,55.34z M154.19,58.32c-0.38-0.33-0.5-0.64-0.32-1.15c0.18-0.51,1.06-0.58,1.97-0.5c0.9,0.08,1.74-0.21,2.4,0.08
		c0.66,0.29,1.09,1.57-0.52,2.44C156.11,60.05,154.58,58.65,154.19,58.32L154.19,58.32z M152.01,55.59c0,0,0.68,0.21,0.5,1.1
		c-0.18,0.89-0.61,0.89-1.66,0.7c-1.04-0.19-1.19-0.5-1-0.87c0.19-0.37,0.74-0.93,1.82-0.99C151.89,55.53,152.01,55.59,152.01,55.59
		L152.01,55.59z M130.78,57.38h-5.57c-7.05,0.05-8.69-3.18-8.69-3.18s-0.57-0.94,0.57-2.14c1.76,3.13,8.18,2.69,8.18,2.69h5.46
		c0,0,6.42,0.44,8.18-2.69c1.14,1.21,0.57,2.14,0.57,2.14S137.83,57.43,130.78,57.38L130.78,57.38z M130.26,95.04
		c2.25-0.11,4.69-0.6,6.82-2.4c2.13-1.79,1.13-3.07,1.13-3.07s-1.01-1.98-2.37-0.49c-2.49,2.41-5.77,2.51-5.77,2.51h-4.13
		c0,0-3.4-0.22-5.77-2.51c-1.36-1.49-2.37,0.49-2.37,0.49s-1,1.28,1.13,3.07c2.13,1.79,4.57,2.29,6.82,2.4
		C127.99,95.16,128.01,95.16,130.26,95.04L130.26,95.04z M141.25,121.28c0,0,1.17-0.42,0.59-2.1c-0.58-1.68-5.28-9.55-5.28-9.55
		s-0.77-1.66-1.68-1.25c-0.64,0.29-0.13,1.72,0.04,2.13c0.17,0.41,3.76,9.73,3.76,9.73C139.5,121.71,140.26,121.59,141.25,121.28
		L141.25,121.28z M135.84,122.64c-1.02,0.16-1.8,0.16-2.37-1.41c0,0-2.4-9.72-2.51-10.14c-0.1-0.43,0.26-1.47,0.76-1.63
		c0.87-0.28,1.26,1.22,1.26,1.22s3.47,8.24,3.78,9.98C137.06,122.4,135.84,122.64,135.84,122.64L135.84,122.64z M134.01,106.95
		c-0.39,0.1-1.28-0.02-1.54-1.1l-1.31-6.89c-0.13-0.5,0.09-0.99,0.48-1.08c0.39-0.1,0.82,0.24,0.95,0.74l2.14,6.96
		C134.97,106.33,134.41,106.86,134.01,106.95L134.01,106.95z M122.34,32.71l0.82-0.32c0,0-0.37,0.83-0.68,1.66
		c-0.18,0.49-0.54,1.35-1.63,1.49c-1.88,0.22-3.36-0.05-3.66-0.9c-0.16-0.46-0.39-1.06,1.17-1.13
		C120.36,33.42,122.34,32.71,122.34,32.71L122.34,32.71z M133.89,32.71c0,0,1.98,0.71,3.98,0.8c1.56,0.07,1.33,0.67,1.17,1.13
		c-0.31,0.86-1.78,1.13-3.66,0.9c-1.09-0.14-1.45-1-1.63-1.49c-0.3-0.83-0.67-1.66-0.67-1.66L133.89,32.71L133.89,32.71z
		 M148.91,42.56c0,0-0.91,0.22-1.82,1.97c-0.96,1.97-3.18,1.43-3.18,1.43s-1.93-0.06-3.24,0.98c-1.31,1.04-2.55,3.46-5.62,5.16
		c-3.07,1.7-5.21-0.28-5.44-1.81c-0.23-1.54-0.11-5.44,0.28-6.81c0.4-1.37,2.49-6.06,6.06-6.39c3.92-0.33,3.58-1.96,5-2.45
		c1.42-0.49,4.47-0.01,6.41,1.58c1.48,1.03,1.61,1.44,1.38,2.76C148.51,40.3,148.91,42.56,148.91,42.56L148.91,42.56z M130.84,59.11
		c-4.86-0.03-0.82-0.03-5.68,0c-4.86,0.03-6.22-1.58-8.65-2.6c-1.9-0.8-3.71-0.23-4.87,0.41c-1.01,0.56-2.99,1.55-4,3.73
		c-2.01,4.35-1.37,4.3-0.75,4.74c0.66,0.47,1.95-0.29,1.89,1.29c-0.43,3.35,1.52,4.53,1.52,4.53s2.07,1.9,5.27,1.09
		c3.84-0.98,6.43-0.77,6.79,2.41c0.37,3.18-0.73,5.76-2.03,7.56c-1.3,1.8-0.63,6.56,5.33,6.56h4.68c5.96,0,6.63-4.76,5.33-6.56
		c-1.3-1.8-2.4-4.37-2.03-7.56c0.37-3.19,2.95-3.39,6.79-2.41c3.2,0.82,5.27-1.09,5.27-1.09s1.95-1.18,1.52-4.53
		c-0.06-1.59,1.23-0.82,1.89-1.29c0.61-0.44,1.26-0.38-0.75-4.74c-1.01-2.18-2.98-3.18-4-3.73c-1.16-0.64-2.97-1.21-4.87-0.41
		C137.06,57.53,135.7,59.15,130.84,59.11z"/>
</g>
</svg>
