<?xml version="1.0" encoding="utf-8"?>
<!-- Generator: Adobe Illustrator 25.4.1, SVG Export Plug-In . SVG Version: 6.00 Build 0)  -->
<svg version="1.1" id="Layer_1" xmlns="http://www.w3.org/2000/svg" xmlns:xlink="http://www.w3.org/1999/xlink" x="0px" y="0px"
	 viewBox="0 0 256 256" style="enable-background:new 0 0 256 256;" xml:space="preserve">
<style type="text/css">
	.st0{fill:#FFFFFF;}
</style>
<g>
	<g>
		<path class="st0" d="M256,256H0V0h256V256z M6.04,249.96h243.91V6.04H6.04V249.96z"/>
	</g>
	<g>
		<g>
			<path class="st0" d="M97.01,35.47v18.41c0,9.18-5.69,13.07-14.08,13.07c-8.43,0-14.08-3.88-14.08-13.07V35.47h9.89v17.35
				c0,2.87,1.5,4.46,4.19,4.46c2.65,0,4.15-1.59,4.15-4.46V35.47H97.01z"/>
			<path class="st0" d="M130.78,48.5v17.88h-4.41l-0.88-3.27c-2.3,2.38-5.61,3.84-9.89,3.84c-9.27,0-16.29-6.89-16.29-16.03
				c0-9.1,7.02-15.98,16.29-15.98c5.61,0,10.42,2.52,13.33,6.58l-8.26,5.43c-1.15-1.5-2.96-2.38-5.08-2.38
				c-3.71,0-6.4,2.65-6.4,6.36c0,3.97,2.69,6.75,6.4,6.75c2.65,0,4.59-0.88,5.61-2.78h-6.4v-6.4H130.78z M122.83,25.63
				c0,4.72-3.45,7.37-7.81,7.37c-4.33,0-7.77-2.65-7.77-7.37h5.87c0,1.02,0.62,1.9,1.9,1.9c1.32,0,1.9-0.88,1.9-1.9H122.83z"/>
			<path class="st0" d="M161.89,35.47v18.41c0,9.18-5.69,13.07-14.08,13.07c-8.43,0-14.08-3.88-14.08-13.07V35.47h9.89v17.35
				c0,2.87,1.5,4.46,4.19,4.46c2.65,0,4.15-1.59,4.15-4.46V35.47H161.89z"/>
			<path class="st0" d="M178,56.84h-2.78v9.54h-9.93V35.47h13.07c8.52,0,13.07,3.93,13.07,11.08c0,3.93-1.63,6.67-4.37,8.3
				l6.53,11.52h-10.77L178,56.84z M175.22,48.9h3.13c2.03,0,3.05-0.71,3.05-2.34c0-1.63-1.02-2.38-3.05-2.38h-3.13V48.9z"/>
		</g>
		<path class="st0" d="M78.25,92.47c0,6.31-4.28,9.14-12.8,9.14H52.12V70.7h12.14c8.52,0,12.85,2.47,12.85,8.34
			c0,3.09-1.46,5.08-3.84,6.27v0.09C76.36,86.64,78.25,88.89,78.25,92.47z M62.05,77.86v4.72h1.81c2.08,0,3.18-0.75,3.18-2.38
			c0-1.63-1.1-2.34-3.18-2.34H62.05z M68.23,91.67c0-1.63-1.15-2.38-3.18-2.38h-3v4.81h3C67.08,94.1,68.23,93.31,68.23,91.67z"/>
		<path class="st0" d="M93.04,92.07h-2.78v9.54h-9.93V70.7h13.07c8.52,0,13.07,3.93,13.07,11.08c0,3.93-1.63,6.67-4.37,8.3
			l6.53,11.52H97.85L93.04,92.07z M90.26,84.12h3.13c2.03,0,3.05-0.71,3.05-2.34c0-1.63-1.02-2.38-3.05-2.38h-3.13V84.12z"/>
		<path class="st0" d="M128.35,96.84h-8.74l-1.32,4.77H107.6l10.33-30.91h12.1l10.33,30.91h-10.69L128.35,96.84z M126.45,89.95
			l-2.47-8.96l-2.47,8.96H126.45z"/>
		<path class="st0" d="M170.24,70.7v30.91h-9.89V90.48h-8.87v11.13h-9.93V70.7h9.93v10.82h8.87V70.7H170.24z"/>
		<path class="st0" d="M223.34,70.7v30.91h-9.93V85.36l-6.89,11.92h-2.74l-6.89-11.92v16.25h-9.93V70.7h10.68l7.51,13.16l7.51-13.16
			H223.34z"/>
		<polygon class="st0" points="183.56,79.93 183.56,70.61 173.63,70.61 173.63,77.03 		"/>
		<path class="st0" d="M238.25,129.64c0-1.39-3.24-2.31-6.59-2.31c-3.01,0-6.25,0.81-7.17,2.66c-1.27,2.78-4.63,12.96-8.68,23.48
			c-3.82,9.72-7.29,17.12-9.49,17.12h-0.12c-1.62-0.12-2.2-1.85-2.2-3.93c0-3.7,1.62-8.79,2.31-10.87
			c3.47-9.25,8.21-20.01,11.57-25.56l0.12-0.35c0-1.16-3.93-2.54-7.75-2.54c-2.78,0-5.44,0.81-6.36,2.89
			c-2.17,5.18-8.13,18.59-9.36,29.47c-0.1,0.06-0.18,0.14-0.24,0.25c-1.39,3.12-6.94,13.07-10.76,13.07l-0.93-0.12
			c-1.27-0.58-1.62-2.2-1.62-4.16c0-3.12,1.04-7.06,1.39-8.56c2.78-10.99,9.02-25.33,11.34-29.96l0.12-0.46
			c0-0.23-0.12-0.35-0.23-0.46c-1.39-1.16-4.05-1.97-6.71-1.97c-2.78,0-5.44,0.81-6.82,2.66l-1.39,3.36
			c-0.93-3.93-4.05-6.01-8.1-6.01c-11.79,0-21.31,18.29-22.02,32.34c-0.12,0.06-0.23,0.14-0.3,0.27
			c-2.2,4.16-6.36,12.96-10.99,12.96c-0.23,0-0.58,0-0.93-0.12c-1.16-0.23-1.62-1.62-1.62-3.59c0-8.56,8.56-29.38,10.64-34.24h2.43
			c1.39,0,3.7-3.82,3.7-6.01c0-0.93-0.35-1.62-1.39-1.62h-1.39c3.12-7.06,5.9-13.07,7.17-15.15l0.12-0.35
			c0-1.16-3.82-2.31-7.52-2.31c-3.24,0-6.36,0.81-7.29,2.89c-1.5,3.35-5.55,13.19-6.25,14.92h-1.97c-1.74,0-4.16,3.7-4.16,6.01
			c0,0.93,0.46,1.62,1.5,1.62c0.69,0.12,1.04,0.12,1.62,0.12c-1.64,4.53-5.6,15.16-6.87,24.68c-0.07,0.05-0.14,0.11-0.18,0.19
			c-1.39,3.24-6.59,13.19-10.99,13.19l-1.04-0.23c-1.16-0.46-1.62-1.85-1.62-3.82c0-12.61,18.04-50.67,21.17-56.91l0.12-0.35
			c0-1.16-3.82-2.2-7.52-2.2c-3.12,0-6.36,0.69-7.17,2.78c-3.22,7.61-8.97,20.44-12.78,32.77c-0.03-0.01-0.07-0.03-0.07-0.03
			c-0.12,0-0.23,0-0.35,0.12c-1.5,1.16-3.36,1.74-5.55,1.74c-1.62,0-3.47-0.35-5.55-0.93c3.01-10.18,8.75-30.25,15.22-38.35
			l0.23-0.46c0-1.16-2.66-1.97-6.25-1.97c-4.97,0-11.92,1.74-16.66,7.06c-5.67,6.48-12.45,13.36-19.62,23.31
			c-4.05-1.39-8.1-2.2-11.91-2.2c-8.44,0-15.5,3.93-17.24,14c0,0.58,0.23,0.81,0.58,0.81c0.35,0,0.58-0.12,0.58-0.12
			c3.24-3.7,7.87-5.09,13.3-5.09c2.78,0,5.67,0.35,8.68,0.93c-5.32,7.17-17.35,21.4-28.69,21.4c-2.89,0-5.67-0.93-8.33-3.01
			c-0.23-0.23-0.58-0.23-0.69-0.23c-0.35,0.12-0.46,0.35-0.46,0.58c0,8.91,3.82,14.69,12.03,14.69l1.97-0.12
			c9.14-0.93,20.36-15.85,31-31.93l12.96,3.35c-0.69,3.24-1.62,8.44-1.62,13.42c0,7.75,2.2,15.27,10.64,15.27h0.46
			c0.46,0,0.58-0.23,0.69-0.58c0-0.23-0.12-0.58-0.46-0.69c-1.04-0.58-1.5-2.31-1.5-4.97c0-4.86,1.62-12.49,3.7-20.13
			c1.04,0.12,2.08,0.12,3.01,0.12c3.72,0,6.86-0.8,8.99-2.93c-1.72,6.08-2.86,11.93-2.86,16.81c0,1.97,0.23,3.7,0.58,5.32
			c1.16,4.63,4.05,7.06,9.14,7.06h0.69c6.66-0.19,10.66-6.99,12.98-12.95c-0.01,0.27-0.02,0.54-0.02,0.81
			c0,6.94,2.31,12.15,9.6,12.15h0.81c7.21-0.4,11.21-8.08,13.51-14.27c0.42,6.41,3.12,11.33,8.94,12.07h1.39
			c3.24,0,5.55-1.16,7.87-4.05c1.5-2.08,2.78-4.97,4.16-8.79l-0.12,2.66c0,6.36,1.97,12.38,9.25,12.38h1.04
			c6.83-0.38,10.86-7.41,13.22-13.42c0.15,6.52,2.74,11.23,10.27,11.23h0.58c2.69-0.1,5.73-2.61,7.43-5.79
			c-1.2,10.43-8.05,40.76-47.3,34.21c-35.71-5.96-88.34-41.73-126.52-24.83c-25.91,11.47-20.56,34.68-20.56,34.68
			s33.06-38.36,90.66-17.2c41.7,15.32,102.63,37.6,116.45-28.61c3.72-12.73,8.85-31.28,12.69-37.46L238.25,129.64z M81.73,141.78
			l-9.37-4.05c7.29-11.22,10.71-13.82,16.61-19.49C85.16,126.92,84.86,129.87,81.73,141.78z M176.24,136.35
			c0,1.62-0.35,4.05-1.27,7.4v0.12c-2.2,7.98-6.01,18.62-8.33,22.79c-1.74,2.89-3.01,4.05-4.16,4.05h-0.35
			c-2.08-0.46-3.01-2.89-3.01-6.36v-1.16c0.23-4.97,1.85-10.99,3.82-15.85c3.01-7.52,7.29-13.88,10.76-13.88l0.69,0.12
			c1.04,0.23,1.62,0.81,1.85,2.2V136.35z"/>
		<polygon class="st0" points="39.07,78.9 39.07,101.61 49,101.61 49,81.81 		"/>
		<polygon class="st0" points="49,79.93 49,70.61 39.07,70.61 39.07,77.03 		"/>
		<polygon class="st0" points="173.63,78.9 173.63,101.61 183.56,101.61 183.56,81.81 		"/>
		<g>
			<path class="st0" d="M34.4,227.96h-1.77l-2.78-3.64v3.64h-1.53v-7.78h1.53v3.43l2.67-3.43h1.77l-2.88,3.78L34.4,227.96z"/>
			<path class="st0" d="M38.17,228.11c-1.12,0-2.08-0.39-2.87-1.17c-0.78-0.79-1.17-1.74-1.17-2.88c0-1.13,0.39-2.09,1.17-2.87
				c0.79-0.79,1.74-1.18,2.87-1.18s2.08,0.39,2.87,1.18c0.79,0.78,1.18,1.73,1.18,2.87c0,1.13-0.39,2.09-1.18,2.88
				C40.25,227.72,39.29,228.11,38.17,228.11z M38.17,226.61c0.71,0,1.31-0.23,1.79-0.71c0.48-0.48,0.72-1.09,0.72-1.83
				c0-0.74-0.24-1.35-0.72-1.83c-0.48-0.48-1.08-0.72-1.79-0.72c-0.71,0-1.31,0.24-1.79,0.72c-0.48,0.48-0.72,1.09-0.72,1.83
				c0,0.74,0.24,1.36,0.72,1.83C36.86,226.38,37.46,226.61,38.17,226.61z"/>
			<path class="st0" d="M47.8,220.18h1.53v7.78h-1.17l-3.33-4.75v4.75H43.3v-7.78h1.17l3.33,4.74V220.18z"/>
			<path class="st0" d="M56.93,220.18l-2.67,4.74v3.03h-1.52v-3.03l-2.65-4.74h1.73l1.69,3.24l1.69-3.24H56.93z"/>
			<path class="st0" d="M61.67,227.96l-0.47-1.4h-3.1l-0.47,1.4h-1.65l2.72-7.78h1.9l2.73,7.78H61.67z M58.6,225.12h2.13l-1.07-3.18
				L58.6,225.12z"/>
			<path class="st0" d="M72.6,225.7c0,0.65-0.23,1.2-0.7,1.62c-0.47,0.42-1.04,0.63-1.72,0.63h-3.3v-7.78h3.07
				c0.67,0,1.22,0.21,1.68,0.62c0.46,0.41,0.69,0.93,0.69,1.57c0,0.64-0.24,1.17-0.73,1.56C72.26,224.31,72.6,224.91,72.6,225.7z
				 M68.41,221.61v1.71h1.53c0.48,0,0.83-0.37,0.83-0.86s-0.34-0.86-0.83-0.86H68.41z M70.18,226.52c0.52,0,0.9-0.39,0.9-0.92
				c0-0.52-0.38-0.91-0.9-0.91h-1.77v1.83H70.18z"/>
			<path class="st0" d="M74.32,227.38c-0.56-0.49-0.83-1.14-0.83-1.97v-5.23h1.52v5.11c0,0.81,0.46,1.32,1.44,1.32
				c0.99,0,1.44-0.51,1.44-1.32v-5.11h1.53v5.23c0,0.82-0.28,1.48-0.83,1.97c-0.56,0.49-1.27,0.73-2.14,0.73
				C75.58,228.11,74.87,227.87,74.32,227.38z M74.86,219.43c-0.3-0.3-0.3-0.77,0-1.07c0.3-0.3,0.78-0.3,1.06,0
				c0.3,0.3,0.3,0.77,0,1.07C75.64,219.7,75.16,219.7,74.86,219.43z M76.97,219.43c-0.3-0.3-0.3-0.77,0-1.07
				c0.3-0.3,0.78-0.3,1.05,0c0.3,0.3,0.3,0.77,0,1.07C77.75,219.7,77.27,219.7,76.97,219.43z"/>
			<path class="st0" d="M86.84,220.18l-2.67,4.74v3.03h-1.52v-3.03L80,220.18h1.73l1.69,3.24l1.69-3.24H86.84z"/>
			<path class="st0" d="M88.24,227.38c-0.56-0.49-0.83-1.14-0.83-1.97v-5.23h1.52v5.11c0,0.81,0.46,1.32,1.44,1.32
				c0.99,0,1.44-0.51,1.44-1.32v-5.11h1.53v5.23c0,0.82-0.28,1.48-0.83,1.97c-0.56,0.49-1.27,0.73-2.14,0.73
				C89.51,228.11,88.79,227.87,88.24,227.38z M88.78,219.43c-0.3-0.3-0.3-0.77,0-1.07c0.3-0.3,0.78-0.3,1.06,0
				c0.3,0.3,0.3,0.77,0,1.07C89.56,219.7,89.08,219.7,88.78,219.43z M90.89,219.43c-0.3-0.3-0.3-0.77,0-1.07
				c0.3-0.3,0.78-0.3,1.05,0c0.3,0.3,0.3,0.77,0,1.07C91.67,219.7,91.19,219.7,90.89,219.43z"/>
			<path class="st0" d="M100.81,227.96h-1.77l-2.78-3.64v3.64h-1.53v-7.78h1.53v3.43l2.67-3.43h1.77l-2.88,3.78L100.81,227.96z"/>
			<path class="st0" d="M104.38,228.07v0.4c0.43,0.1,0.78,0.39,0.78,0.87c0,0.78-0.81,1.12-2.44,1.02v-1.01
				c0.8,0.06,1.2-0.02,1.2-0.22c0-0.14-0.23-0.24-0.7-0.28v-0.77c-1.24-0.17-2.12-0.85-2.49-1.89l1.31-0.77
				c0.3,0.79,0.9,1.19,1.79,1.19c0.86,0,1.24-0.34,1.24-0.82c0-0.28-0.12-0.49-0.37-0.63c-0.24-0.16-0.68-0.32-1.31-0.5
				c-0.7-0.21-1.12-0.38-1.61-0.72c-0.48-0.36-0.73-0.89-0.73-1.6c0-0.7,0.24-1.27,0.74-1.68c0.5-0.42,1.11-0.63,1.81-0.63
				c1.26,0,2.24,0.64,2.78,1.74l-1.29,0.74c-0.31-0.67-0.81-1-1.49-1c-0.63,0-1.02,0.32-1.02,0.78c0,0.24,0.1,0.44,0.3,0.6
				c0.21,0.14,0.6,0.31,1.18,0.49l0.53,0.18c0.12,0.03,0.29,0.1,0.5,0.19c0.21,0.08,0.38,0.16,0.49,0.23
				c0.23,0.14,0.59,0.42,0.73,0.69c0.17,0.27,0.29,0.66,0.29,1.1C106.6,227.02,105.75,227.88,104.38,228.07z"/>
			<path class="st0" d="M109.08,226.49h3.28v1.47h-4.81v-7.78h4.75v1.47h-3.22v1.65h2.94v1.44h-2.94V226.49z"/>
			<path class="st0" d="M117.87,220.18h1.52v7.78h-1.52v-3.22h-2.89v3.22h-1.53v-7.78h1.53v3.09h2.89V220.18z"/>
			<path class="st0" d="M120.99,218.15c0.5-0.57,1.51-0.11,1.47,0.6c0,0.48-0.4,0.87-0.86,0.87
				C120.87,219.66,120.43,218.63,120.99,218.15z M120.84,220.18h1.53v7.78h-1.53V220.18z"/>
			<path class="st0" d="M128.08,227.96l-1.57-2.7h-1.17v2.7h-1.53v-7.78h3.11c0.72,0,1.33,0.26,1.83,0.76
				c0.5,0.5,0.75,1.11,0.75,1.82c0,0.97-0.6,1.85-1.5,2.27l1.72,2.93H128.08z M125.35,221.61v2.3h1.58c0.58,0,1.06-0.52,1.06-1.15
				c0-0.63-0.48-1.14-1.06-1.14H125.35z"/>
			<path class="st0" d="M139.15,225.7c0,0.65-0.23,1.2-0.7,1.62c-0.47,0.42-1.04,0.63-1.72,0.63h-3.3v-7.78h3.07
				c0.67,0,1.22,0.21,1.68,0.62c0.46,0.41,0.69,0.93,0.69,1.57c0,0.64-0.24,1.17-0.73,1.56C138.8,224.31,139.15,224.91,139.15,225.7
				z M134.96,221.61v1.71h1.53c0.48,0,0.83-0.37,0.83-0.86s-0.34-0.86-0.83-0.86H134.96z M136.72,226.52c0.52,0,0.9-0.39,0.9-0.92
				c0-0.52-0.38-0.91-0.9-0.91h-1.77v1.83H136.72z"/>
			<path class="st0" d="M141.68,226.49h3.28v1.47h-4.81v-7.78h4.75v1.47h-3.22v1.65h2.94v1.44h-2.94V226.49z"/>
			<path class="st0" d="M147.58,226.49h2.97v1.47h-4.5v-7.78h1.53V226.49z"/>
			<path class="st0" d="M152.95,226.49h3.28v1.47h-4.81v-7.78h4.75v1.47h-3.22v1.65h2.94v1.44h-2.94V226.49z"/>
			<path class="st0" d="M160.4,220.18c1.07,0,1.96,0.38,2.67,1.12c0.72,0.74,1.08,1.67,1.08,2.77c0,1.1-0.36,2.02-1.08,2.77
				c-0.71,0.74-1.6,1.12-2.67,1.12h-3.09v-7.78H160.4z M160.4,226.49c0.68,0,1.22-0.22,1.64-0.67c0.42-0.46,0.63-1.03,0.63-1.76
				c0-0.72-0.21-1.3-0.63-1.74c-0.42-0.46-0.97-0.68-1.64-0.68h-1.56v4.84H160.4z"/>
			<path class="st0" d="M165.39,218.15c0.5-0.57,1.51-0.11,1.47,0.6c0,0.48-0.4,0.87-0.86,0.87
				C165.27,219.66,164.82,218.63,165.39,218.15z M165.24,220.18h1.53v7.78h-1.53V220.18z"/>
			<path class="st0" d="M174.37,220.18l-2.67,4.74v3.03h-1.52v-3.03l-2.65-4.74h1.73l1.69,3.24l1.69-3.24H174.37z"/>
			<path class="st0" d="M176.65,226.49h3.28v1.47h-4.81v-7.78h4.75v1.47h-3.22v1.65h2.94v1.44h-2.94V226.49z"/>
			<path class="st0" d="M189.51,225.7c0,0.65-0.23,1.2-0.7,1.62c-0.47,0.42-1.04,0.63-1.72,0.63h-3.3v-7.78h3.07
				c0.67,0,1.22,0.21,1.68,0.62c0.46,0.41,0.69,0.93,0.69,1.57c0,0.64-0.24,1.17-0.73,1.56
				C189.17,224.31,189.51,224.91,189.51,225.7z M185.32,221.61v1.71h1.53c0.48,0,0.83-0.37,0.83-0.86s-0.34-0.86-0.83-0.86H185.32z
				 M187.09,226.52c0.52,0,0.9-0.39,0.9-0.92c0-0.52-0.38-0.91-0.9-0.91h-1.77v1.83H187.09z"/>
			<path class="st0" d="M195.52,227.96l-0.47-1.4h-3.1l-0.47,1.4h-1.65l2.72-7.78h1.9l2.73,7.78H195.52z M192.44,225.12h2.13
				l-1.07-3.18L192.44,225.12z"/>
			<path class="st0" d="M201.02,228.07v0.4c0.43,0.1,0.78,0.39,0.78,0.87c0,0.78-0.81,1.12-2.44,1.02v-1.01
				c0.8,0.06,1.2-0.02,1.2-0.22c0-0.14-0.23-0.24-0.7-0.28v-0.77c-1.24-0.17-2.12-0.85-2.49-1.89l1.31-0.77
				c0.3,0.79,0.9,1.19,1.79,1.19c0.86,0,1.24-0.34,1.24-0.82c0-0.28-0.12-0.49-0.37-0.63c-0.24-0.16-0.68-0.32-1.31-0.5
				c-0.7-0.21-1.12-0.38-1.61-0.72c-0.48-0.36-0.73-0.89-0.73-1.6c0-0.7,0.24-1.27,0.74-1.68c0.5-0.42,1.11-0.63,1.81-0.63
				c1.26,0,2.24,0.64,2.78,1.74l-1.29,0.74c-0.31-0.67-0.81-1-1.49-1c-0.63,0-1.02,0.32-1.02,0.78c0,0.24,0.1,0.44,0.3,0.6
				c0.21,0.14,0.6,0.31,1.18,0.49l0.53,0.18c0.12,0.03,0.29,0.1,0.5,0.19c0.21,0.08,0.38,0.16,0.49,0.23
				c0.23,0.14,0.59,0.42,0.73,0.69c0.17,0.27,0.29,0.66,0.29,1.1C203.24,227.02,202.39,227.88,201.02,228.07z"/>
			<path class="st0" d="M210.27,227.96h-1.77l-2.78-3.64v3.64h-1.53v-7.78h1.53v3.43l2.67-3.43h1.77l-2.88,3.78L210.27,227.96z"/>
			<path class="st0" d="M216.23,227.96l-0.47-1.4h-3.1l-0.47,1.4h-1.65l2.72-7.78h1.9l2.73,7.78H216.23z M213.15,225.12h2.13
				l-1.07-3.18L213.15,225.12z"/>
			<path class="st0" d="M223.16,220.18h1.53v7.78h-1.17l-3.33-4.75v4.75h-1.53v-7.78h1.17l3.33,4.74V220.18z"/>
			<path class="st0" d="M226.14,220.18h1.53v7.78h-1.53V220.18z"/>
		</g>
	</g>
</g>
</svg>
